HIERARCHY
ROOT Hips
{
	OFFSET -3.958830 18.904000 13.208200
	CHANNELS 6 Xposition Yposition Zposition Zrotation Yrotation Xrotation 
	JOINT LHipJoint
	{
		OFFSET 0.000000 0.000000 0.000000
		CHANNELS 3 Zrotation Yrotation Xrotation
		JOINT LeftUpLeg
		{
			OFFSET 1.800000 -1.400000 0.085000
			CHANNELS 3 Zrotation Yrotation Xrotation
			JOINT LeftLeg
			{
				OFFSET 2.215000 -6.000000 0.000000
				CHANNELS 3 Zrotation Yrotation Xrotation
				JOINT LeftFoot
				{
					OFFSET 2.500000 -6.900000 0.000000
					CHANNELS 3 Zrotation Yrotation Xrotation
					JOINT LeftToeBase
					{
						OFFSET 0.200000 -0.500000 1.950000
						CHANNELS 3 Zrotation Yrotation Xrotation
						End Site
						{
							OFFSET 0.000000 0.000000 0.000000
						}
					}
				}
			}
		}
	}
	JOINT RHipJoint
	{
		OFFSET 0.000000 0.000000 0.000000
		CHANNELS 3 Zrotation Yrotation Xrotation
		JOINT RightUpLeg
		{
			OFFSET -1.800000 -1.400000 0.085000
			CHANNELS 3 Zrotation Yrotation Xrotation
			JOINT RightLeg
			{
				OFFSET -2.215000 -6.000000 0.000000
				CHANNELS 3 Zrotation Yrotation Xrotation
				JOINT RightFoot
				{
					OFFSET -2.500000 -6.900000 0.000000
					CHANNELS 3 Zrotation Yrotation Xrotation
					JOINT RightToeBase
					{
						OFFSET -0.200000 -0.500000 1.950000
						CHANNELS 3 Zrotation Yrotation Xrotation
						End Site
						{
							OFFSET 0.000000 0.000000 0.000000
						}
					}
				}
			}
		}
	}
	JOINT LowerBack
	{
		OFFSET 0.000000 0.000000 0.000000
		CHANNELS 3 Zrotation Yrotation Xrotation
		JOINT Spine
		{
			OFFSET -0.087000 1.940000 -0.288900
			CHANNELS 3 Zrotation Yrotation Xrotation
			JOINT Spine1
			{
				OFFSET 0.000000 1.950000 0.060000
				CHANNELS 3 Zrotation Yrotation Xrotation
				JOINT Neck
				{
					OFFSET 0.000000 0.000000 0.000000
					CHANNELS 3 Zrotation Yrotation Xrotation
					JOINT Neck1
					{
						OFFSET 0.000000 1.600000 0.340000
						CHANNELS 3 Zrotation Yrotation Xrotation
						JOINT Head
						{
							OFFSET 0.000000 1.667000 -0.240000
							CHANNELS 3 Zrotation Yrotation Xrotation
							End Site
							{
								OFFSET 0.000000 0.000000 0.000000
							}
						}
					}
				}
				JOINT LeftShoulder
				{
					OFFSET 0.000000 0.000000 0.000000
					CHANNELS 3 Zrotation Yrotation Xrotation
					JOINT LeftArm
					{
						OFFSET 2.700000 1.550000 -0.730000
						CHANNELS 3 Zrotation Yrotation Xrotation
						JOINT LeftForeArm
						{
							OFFSET 5.450000 0.000000 0.000000
							CHANNELS 3 Zrotation Yrotation Xrotation
							JOINT LeftHand
							{
								OFFSET 3.450000 0.000000 0.000000
								CHANNELS 3 Zrotation Yrotation Xrotation
								JOINT LeftHandIndex1
								{
									OFFSET 0.750000 0.000000 0.000000
									CHANNELS 3 Zrotation Yrotation Xrotation
									End Site
									{
										OFFSET 0.000000 0.000000 0.000000
									}
								}
							}
						}
					}
				}
				JOINT RightShoulder
				{
					OFFSET 0.000000 0.000000 0.000000
					CHANNELS 3 Zrotation Yrotation Xrotation
					JOINT RightArm
					{
						OFFSET -2.700000 1.550000 -0.730000
						CHANNELS 3 Zrotation Yrotation Xrotation
						JOINT RightForeArm
						{
							OFFSET -5.450000 0.000000 0.000000
							CHANNELS 3 Zrotation Yrotation Xrotation
							JOINT RightHand
							{
								OFFSET -3.450000 0.000000 0.000000
								CHANNELS 3 Zrotation Yrotation Xrotation
								JOINT RightHandIndex1
								{
									OFFSET -0.750000 0.000000 0.000000
									CHANNELS 3 Zrotation Yrotation Xrotation
									End Site
									{
										OFFSET 0.000000 0.000000 0.000000
									}
								}
							}
						}
					}
				}
			}
		}
	}
}
MOTION
Frames: 13
Frame Time: 0.016667
0.746250 16.986480 -1.330630 -0.654398 -10.034679 3.619485 -15.026729 13.281269 2.931794 4.624373 -0.991375 -9.686824 -8.393441 5.296748 7.320474 -0.020899 3.719739 3.336996 0.000040 -0.100620 -0.004160 18.313180 -11.038728 2.531808 -14.495307 -0.084448 -12.123691 6.048461 -4.307071 7.380867 0.005224 -3.378362 3.235342 -0.009010 0.181530 0.036260 -3.731563 -1.573190 -7.067246 7.406993 0.837571 4.848739 -3.304036 1.293683 3.865493 0.660740 -3.043072 -7.355814 -9.818580 4.129174 42.450096 -0.639210 2.281260 4.610810 -23.168571 -4.053072 0.571146 -38.799863 -8.772572 -2.125384 -3.872126 -19.876227 0.229394 -3.886325 2.961964 0.040230 0.144370 -0.123900 0.047040 21.750574 5.946798 5.267694 53.117425 -3.265777 -7.214503 12.878472 14.820402 -0.011840 2.560230 -1.283717 -0.105580 0.057860 0.044790 -0.046720 
0.743700 16.986060 -1.327770 -0.596291 -9.861634 3.646809 -15.037776 13.271537 2.943510 4.544760 -0.922374 -9.277865 -8.309935 5.172195 6.576150 -0.016670 3.708739 3.348197 -0.004110 -0.103600 -0.011540 18.310460 -11.018858 2.519834 -14.461848 -0.102465 -12.011168 5.954408 -4.280615 7.272222 0.005049 -3.378336 3.239167 -0.010060 0.187530 0.034620 -3.716459 -1.600339 -7.061345 7.296885 0.777906 4.678455 -3.233635 1.215414 3.940261 0.608152 -3.095765 -7.377499 -9.970841 4.199344 42.529491 -0.547240 2.233970 4.712540 -23.024974 -4.023396 0.605618 -38.832598 -8.773098 -2.116307 -3.909684 -20.099185 0.247338 -3.885925 2.961472 0.039680 0.146210 -0.126710 0.049070 21.728487 5.935779 5.279825 53.108706 -3.300653 -7.202075 12.924907 14.764447 -0.009864 2.559119 -1.281069 -0.108090 0.061850 0.047960 -0.044250 
0.739040 16.985620 -1.326720 -0.520696 -9.583602 3.725433 -15.056466 13.241658 2.959253 4.319002 -0.822945 -8.608409 -7.960267 4.909032 5.266064 -0.012732 3.666411 3.371805 -0.001960 -0.099930 -0.011330 18.307911 -10.980204 2.515157 -14.381144 -0.119960 -11.817124 5.879323 -4.216338 6.877844 0.000812 -3.375897 3.245368 -0.007920 0.187240 0.031920 -3.694802 -1.621427 -7.057040 7.097015 0.718823 4.406277 -3.087347 1.120031 4.138033 0.538094 -3.086444 -7.411250 -10.011096 4.185439 42.702615 -0.435040 2.136710 4.675890 -22.657630 -3.999844 0.696449 -38.917619 -8.817357 -2.129996 -4.020583 -20.897980 0.307139 -3.877769 2.963097 0.040330 0.144810 -0.126260 0.049560 21.536183 5.904677 5.261223 53.117422 -3.141722 -7.084484 12.843381 14.649792 -0.008288 2.560211 -1.277137 -0.108090 0.065140 0.047160 -0.043700 
0.731350 16.982260 -1.325840 -0.401898 -9.255198 3.817808 -15.080706 13.208968 2.979454 4.183237 -0.754406 -8.066511 -7.741309 4.695104 4.069416 -0.003415 3.648845 3.386210 -0.001060 -0.096250 -0.015100 18.300172 -10.938873 2.503843 -14.315519 -0.130274 -11.677606 5.800951 -4.160103 6.571264 -0.001211 -3.375516 3.248986 -0.005510 0.190980 0.032120 -3.657494 -1.647562 -7.049140 6.744597 0.681447 4.125813 -2.826368 1.038364 4.339858 0.419578 -3.093614 -7.404597 -10.040896 4.136831 42.658301 -0.327520 2.011590 4.653970 -22.207439 -3.906737 0.778573 -39.058852 -8.904138 -2.151256 -4.188034 -21.997442 0.393200 -3.871142 2.971757 0.036110 0.146650 -0.128070 0.051610 21.370108 5.843637 5.189020 53.091466 -2.853882 -6.863440 12.603362 14.302730 -0.028805 2.564349 -1.275923 -0.106460 0.066930 0.047420 -0.040120 
0.722540 16.975500 -1.322890 -0.401919 -8.988339 3.843179 -15.095823 13.201353 2.992124 4.313384 -0.715655 -7.764976 -7.677341 4.607184 3.450948 0.003756 3.659969 3.387379 0.000200 -0.092770 -0.016670 18.292818 -10.926150 2.483425 -14.149972 -0.135471 -11.593089 5.613499 -4.126460 6.605515 0.001140 -3.367449 3.255579 -0.002440 0.193850 0.031580 -3.628500 -1.668241 -7.038634 6.533775 0.642866 3.979261 -2.557947 0.960886 4.480076 0.336793 -3.087623 -7.384083 -10.020432 4.072245 42.559780 -0.361300 1.968150 4.651900 -21.945460 -3.847828 0.833699 -39.050876 -8.971156 -2.109142 -4.621264 -22.720326 0.518761 -3.867968 2.980213 0.031290 0.149940 -0.131130 0.053200 21.310916 5.804589 5.120960 52.737328 -2.571055 -6.629256 12.109709 14.098126 -0.051904 2.565801 -1.276339 -0.106010 0.068080 0.046700 -0.038490 
0.715120 16.969940 -1.321390 -0.402347 -8.702825 3.844260 -15.101130 13.216368 3.007910 4.498224 -0.720739 -7.784606 -7.838539 4.625629 3.347377 0.010272 3.682060 3.381453 0.000460 -0.091280 -0.020740 18.285093 -10.939536 2.453133 -14.055996 -0.139629 -11.658790 5.408821 -4.141852 7.052858 0.008539 -3.357246 3.259679 -0.000950 0.198620 0.033610 -3.609567 -1.691675 -7.035688 6.437170 0.524254 4.017686 -2.431020 0.834840 4.499364 0.290320 -3.168359 -7.395280 -10.129026 4.067948 42.334615 -0.391440 1.902100 4.699530 -21.997468 -3.926265 0.908906 -38.892635 -8.868805 -2.083594 -5.068539 -22.998975 0.621966 -3.867372 2.991833 0.024500 0.154110 -0.135150 0.055880 21.474356 5.961528 5.102497 52.008401 -2.241524 -6.339199 11.531781 13.928643 -0.070073 2.567858 -1.279957 -0.103970 0.066950 0.046630 -0.034920 
0.708550 16.963510 -1.317370 -0.479198 -8.470520 3.769201 -15.094948 13.247423 3.007434 4.696746 -0.728758 -7.934192 -7.861429 4.684292 3.666941 0.008984 3.689529 3.378350 -0.000250 -0.090040 -0.022570 18.282280 -10.976754 2.431103 -13.933017 -0.144634 -11.694748 5.286663 -4.197650 7.652311 0.013886 -3.355151 3.261507 0.000050 0.200940 0.032700 -3.611558 -1.691612 -7.033218 6.529479 0.419237 4.138369 -2.411924 0.736230 4.522795 0.331055 -3.201530 -7.462979 -10.147670 4.054393 42.296690 -0.499300 1.892720 4.726210 -22.170083 -4.165082 1.028376 -38.801261 -8.746416 -1.981714 -5.750807 -22.691964 0.732213 -3.868216 2.995002 0.021160 0.156310 -0.136490 0.057610 21.574285 6.248159 5.133251 51.186316 -1.822125 -6.039109 10.805867 13.891165 -0.081062 2.569504 -1.279312 -0.104050 0.068960 0.045920 -0.033060 
0.703480 16.958450 -1.313220 -0.604134 -8.227269 3.622043 -15.077033 13.274861 2.988298 4.790263 -0.733619 -8.118372 -7.630400 4.725636 4.218513 0.004189 3.665719 3.382553 0.004080 -0.082990 -0.018860 18.287581 -11.029840 2.426201 -13.963575 -0.151987 -11.758088 5.523570 -4.346078 8.337279 0.011714 -3.383496 3.248102 0.001360 0.195880 0.034880 -3.643262 -1.641940 -7.030972 6.804660 0.343065 4.274951 -2.637497 0.686590 4.672339 0.519746 -3.122184 -7.603163 -9.927162 3.944092 42.488195 -0.687490 1.884310 4.712850 -22.285477 -4.581927 1.220512 -38.979726 -8.695353 -1.818034 -6.517953 -22.028434 0.823667 -3.867114 2.998812 0.019080 0.155220 -0.131460 0.059190 21.306919 6.646344 5.211163 50.381655 -1.169509 -5.670503 10.313647 13.986038 -0.060055 2.573336 -1.282191 -0.098530 0.066330 0.041180 -0.031460 
0.695840 16.960150 -1.309450 -0.665232 -7.966808 3.432225 -15.066286 13.306488 2.973008 4.891115 -0.728643 -8.272570 -7.441548 4.777052 4.750659 0.005595 3.650904 3.384438 -0.000640 -0.086010 -0.023770 18.285546 -11.075148 2.424592 -13.968468 -0.152958 -11.753571 5.749657 -4.487994 8.955869 0.011896 -3.416351 3.235156 -0.003830 0.195150 0.035620 -3.653771 -1.610798 -7.037789 6.923543 0.238468 4.387497 -2.825196 0.607967 4.832723 0.753632 -3.028390 -7.848904 -9.708407 3.948926 42.956668 -0.784170 1.914240 5.072510 -22.545846 -5.192705 1.545216 -39.349508 -8.441970 -1.674566 -7.307186 -21.185156 0.888015 -3.865545 3.005051 0.015010 0.155850 -0.130650 0.060040 21.127861 7.256223 5.365674 49.294223 -0.449339 -5.319451 9.293942 14.425792 -0.047994 2.575826 -1.284247 -0.094800 0.061650 0.040770 -0.028210 
0.681420 16.970320 -1.306020 -0.648649 -7.738688 3.171163 -15.060336 13.354740 2.955613 4.911938 -0.720244 -8.443627 -7.207708 4.850535 5.495498 -0.000859 3.637490 3.382334 0.004460 -0.080320 -0.018530 18.277495 -11.122662 2.419336 -13.940556 -0.150502 -11.689054 5.840440 -4.608486 9.605577 0.008720 -3.442376 3.223649 -0.002870 0.187650 0.036010 -3.647372 -1.603958 -7.041354 6.927519 0.091720 4.585744 -3.007094 0.498486 4.955549 0.994423 -3.060746 -8.027123 -9.740674 4.093092 43.457181 -0.942050 2.009020 5.128970 -22.943403 -5.604011 1.807351 -39.826149 -8.083547 -1.566676 -8.160139 -20.482232 0.947903 -3.858437 3.009915 0.017580 0.151960 -0.125320 0.059730 21.075360 7.779342 5.430028 47.854554 0.460633 -4.997330 7.928225 15.265954 -0.051602 2.571252 -1.284718 -0.091060 0.058960 0.037380 -0.029380 
0.664790 16.976680 -1.305610 -0.711748 -7.527696 2.987902 -15.059288 13.384831 2.931339 5.041220 -0.722276 -8.648395 -6.956018 4.894048 6.077470 -0.010998 3.628404 3.380988 0.006660 -0.078000 -0.013220 18.270360 -11.156777 2.417022 -13.851456 -0.122219 -11.697089 5.951007 -4.702288 10.107048 0.009691 -3.465169 3.213668 -0.000430 0.185480 0.037600 -3.637344 -1.580166 -7.030397 6.916797 -0.060698 4.656239 -3.100640 0.354626 5.270012 1.289965 -2.948862 -8.144053 -9.370065 4.110701 43.677084 -1.186710 2.155610 5.152250 -22.938966 -5.907944 2.089542 -40.857238 -7.912056 -1.337292 -9.251031 -19.683808 1.019433 -3.861640 3.013463 0.015440 0.154810 -0.125100 0.057820 20.528384 8.101203 5.360392 46.380779 1.744930 -4.698816 6.336975 16.643181 -0.080445 2.559041 -1.288784 -0.090370 0.057540 0.036290 -0.031630 
0.646530 16.983890 -1.306240 -0.800590 -7.315023 2.783447 -15.058562 13.417764 2.910151 5.269368 -0.717669 -8.827002 -6.812982 4.971923 6.706923 -0.021197 3.639538 3.372199 0.010230 -0.075400 -0.006770 18.261384 -11.189459 2.417323 -13.700615 -0.081573 -11.749076 6.133373 -4.818290 10.697509 0.009047 -3.489226 3.201487 0.003550 0.182010 0.037870 -3.623893 -1.558624 -7.028515 6.956722 -0.234055 4.769792 -3.159119 0.197228 5.561338 1.658565 -2.803336 -8.291877 -8.931405 4.141936 44.048139 -1.403030 2.296330 5.172480 -23.078804 -6.325079 2.405378 -42.151969 -7.684193 -1.116808 -10.142930 -18.598685 1.006835 -3.862979 3.013342 0.017430 0.155370 -0.123640 0.056850 19.990871 8.528899 5.296318 44.392439 3.149493 -4.280682 4.549940 17.457222 -0.158816 2.551717 -1.288370 -0.092350 0.057710 0.034710 -0.035450 
0.623380 16.990910 -1.310520 -0.935269 -7.284251 2.665762 -15.052791 13.445492 2.882622 5.561508 -0.731957 -9.124488 -6.590840 5.036933 7.408047 -0.036403 3.644047 3.364803 0.015390 -0.071930 0.003530 18.256442 -11.223661 2.431008 -13.457120 -0.005039 -11.880672 6.339077 -4.912618 11.183239 0.008731 -3.505031 3.192332 0.008280 0.178230 0.041420 -3.621139 -1.510841 -7.030625 7.093771 -0.378826 4.934564 -3.305134 0.076544 5.806145 2.119861 -2.633145 -8.396507 -8.337136 4.143384 44.164880 -1.788780 2.537960 5.042260 -23.315764 -6.667629 2.710625 -43.492432 -7.261180 -1.040906 -10.564744 -17.707663 0.919831 -3.866011 3.011368 0.019030 0.158470 -0.121460 0.055050 19.355113 8.900003 5.165984 42.097972 4.715384 -3.980356 2.564701 18.856950 -0.276306 2.533785 -1.290692 -0.093560 0.057170 0.032840 -0.040870 
